# xmcd
#
# Track frame offsets:
#	150
#	11507
#	21468
#	34404
#	45405
#	55090
#	65516
#	73804
#	87772
#	98515
#	108529
#	122046
#	131612
#	141629
#	153153
#
# Disc length: 2181 seconds
#
# Revision: 1
# Processed by: cddbd v1.5.2PL0 Copyright (c) Steve Scherf et al.
# Submitted via: EasyCDDAExtractor 5.0.6
#
DISCID=cf08830f
DTITLE=The Lonesome Drifters - From The Backwoods
DYEAR=2011
DGENRE=Rockabilly
TTITLE0=Where There's A Will
TTITLE1=Lonesome Train
TTITLE2=Sailin' The Seven Seas
TTITLE3=I'm Out
TTITLE4=I've Changed My Mind
TTITLE5=High On a Hill
TTITLE6=Ballin Keen
TTITLE7=Morse Code
TTITLE8=Just Keep On Going
TTITLE9=Here Comes That Train
TTITLE10=Feelin Low
TTITLE11=Gonna Rock'n'Roll Tonight
TTITLE12=Run Baby Run
TTITLE13=My Hanging Day
TTITLE14=Move Baby Move
EXTD=
EXTT0=
EXTT1=
EXTT2=
EXTT3=
EXTT4=
EXTT5=
EXTT6=
EXTT7=
EXTT8=
EXTT9=
EXTT10=
EXTT11=
EXTT12=
EXTT13=
EXTT14=
PLAYORDER=
